<mxfile host="app.diagrams.net" modified="2022-11-22T07:34:27.313Z" agent="5.0 (X11)" etag="PZKuC6aiDwMyPwpm8CWu" version="20.5.3" type="github">
  <diagram id="hw-l9xj8tLqjK2iEYgQX" name="Página-1">
    <mxGraphModel dx="868" dy="440" grid="1" gridSize="10" guides="1" tooltips="1" connect="1" arrows="1" fold="1" page="1" pageScale="1" pageWidth="827" pageHeight="1169" math="0" shadow="0">
      <root>
        <mxCell id="0" />
        <mxCell id="1" parent="0" />
        <mxCell id="wnY_KTexzVuaMcs6bdZ_-2" value="" style="whiteSpace=wrap;html=1;aspect=fixed;" vertex="1" parent="1">
          <mxGeometry x="250" y="80" width="300" height="300" as="geometry" />
        </mxCell>
        <mxCell id="N9E9uTrnUj7t1JFD-TMq-1" value="&lt;div&gt;Jugador&lt;/div&gt;" style="shape=umlActor;verticalLabelPosition=bottom;verticalAlign=top;html=1;outlineConnect=0;" parent="1" vertex="1">
          <mxGeometry x="120" y="160" width="40" height="80" as="geometry" />
        </mxCell>
        <mxCell id="N9E9uTrnUj7t1JFD-TMq-2" value="Pausa el juego" style="ellipse;whiteSpace=wrap;html=1;" parent="1" vertex="1">
          <mxGeometry x="390" y="160" width="80" height="60" as="geometry" />
        </mxCell>
        <mxCell id="N9E9uTrnUj7t1JFD-TMq-3" value="" style="endArrow=none;html=1;rounded=0;exitX=0.5;exitY=0.5;exitDx=0;exitDy=0;exitPerimeter=0;entryX=0.013;entryY=0.414;entryDx=0;entryDy=0;entryPerimeter=0;" parent="1" source="N9E9uTrnUj7t1JFD-TMq-1" target="N9E9uTrnUj7t1JFD-TMq-5" edge="1">
          <mxGeometry width="50" height="50" relative="1" as="geometry">
            <mxPoint x="390" y="260" as="sourcePoint" />
            <mxPoint x="430" y="280" as="targetPoint" />
          </mxGeometry>
        </mxCell>
        <mxCell id="N9E9uTrnUj7t1JFD-TMq-5" value="Reanudar el juego" style="ellipse;whiteSpace=wrap;html=1;" parent="1" vertex="1">
          <mxGeometry x="390" y="220" width="80" height="70" as="geometry" />
        </mxCell>
        <mxCell id="N9E9uTrnUj7t1JFD-TMq-8" value="Inicia el juego" style="ellipse;whiteSpace=wrap;html=1;" parent="1" vertex="1">
          <mxGeometry x="380" y="90" width="90" height="70" as="geometry" />
        </mxCell>
        <mxCell id="N9E9uTrnUj7t1JFD-TMq-9" value="" style="endArrow=none;html=1;rounded=0;entryX=0.067;entryY=0.771;entryDx=0;entryDy=0;exitX=0.5;exitY=0.5;exitDx=0;exitDy=0;exitPerimeter=0;entryPerimeter=0;" parent="1" source="N9E9uTrnUj7t1JFD-TMq-1" target="N9E9uTrnUj7t1JFD-TMq-8" edge="1">
          <mxGeometry width="50" height="50" relative="1" as="geometry">
            <mxPoint x="160" y="210" as="sourcePoint" />
            <mxPoint x="306" y="193.62" as="targetPoint" />
          </mxGeometry>
        </mxCell>
        <mxCell id="N9E9uTrnUj7t1JFD-TMq-12" value="Cambia la dirección de la serpiente" style="ellipse;whiteSpace=wrap;html=1;" parent="1" vertex="1">
          <mxGeometry x="280" y="140" width="100" height="70" as="geometry" />
        </mxCell>
        <mxCell id="N9E9uTrnUj7t1JFD-TMq-13" value="" style="endArrow=none;html=1;rounded=0;entryX=0;entryY=1;entryDx=0;entryDy=0;exitX=0.5;exitY=0.5;exitDx=0;exitDy=0;exitPerimeter=0;" parent="1" source="N9E9uTrnUj7t1JFD-TMq-1" target="N9E9uTrnUj7t1JFD-TMq-12" edge="1">
          <mxGeometry width="50" height="50" relative="1" as="geometry">
            <mxPoint x="170" y="250" as="sourcePoint" />
            <mxPoint x="288" y="404.74" as="targetPoint" />
          </mxGeometry>
        </mxCell>
        <mxCell id="N9E9uTrnUj7t1JFD-TMq-24" value="Termina el juego" style="ellipse;whiteSpace=wrap;html=1;" parent="1" vertex="1">
          <mxGeometry x="350" y="290" width="80" height="70" as="geometry" />
        </mxCell>
        <mxCell id="N9E9uTrnUj7t1JFD-TMq-27" value="" style="endArrow=none;html=1;rounded=0;exitX=0;exitY=0;exitDx=0;exitDy=0;entryX=0.5;entryY=0.5;entryDx=0;entryDy=0;entryPerimeter=0;" parent="1" source="N9E9uTrnUj7t1JFD-TMq-24" target="N9E9uTrnUj7t1JFD-TMq-1" edge="1">
          <mxGeometry width="50" height="50" relative="1" as="geometry">
            <mxPoint x="464" y="350" as="sourcePoint" />
            <mxPoint x="160" y="240" as="targetPoint" />
          </mxGeometry>
        </mxCell>
        <mxCell id="wnY_KTexzVuaMcs6bdZ_-1" value="" style="endArrow=none;html=1;rounded=0;exitX=0.5;exitY=0.5;exitDx=0;exitDy=0;exitPerimeter=0;entryX=0.275;entryY=0.967;entryDx=0;entryDy=0;entryPerimeter=0;" edge="1" parent="1" source="N9E9uTrnUj7t1JFD-TMq-1" target="N9E9uTrnUj7t1JFD-TMq-2">
          <mxGeometry width="50" height="50" relative="1" as="geometry">
            <mxPoint x="390" y="290" as="sourcePoint" />
            <mxPoint x="440" y="240" as="targetPoint" />
          </mxGeometry>
        </mxCell>
        <mxCell id="wnY_KTexzVuaMcs6bdZ_-3" value="Resetear el juego" style="ellipse;whiteSpace=wrap;html=1;" vertex="1" parent="1">
          <mxGeometry x="300" y="220" width="80" height="70" as="geometry" />
        </mxCell>
        <mxCell id="wnY_KTexzVuaMcs6bdZ_-4" value="" style="endArrow=none;html=1;rounded=0;entryX=0;entryY=0.5;entryDx=0;entryDy=0;exitX=0.5;exitY=0.5;exitDx=0;exitDy=0;exitPerimeter=0;" edge="1" parent="1" source="N9E9uTrnUj7t1JFD-TMq-1" target="wnY_KTexzVuaMcs6bdZ_-3">
          <mxGeometry width="50" height="50" relative="1" as="geometry">
            <mxPoint x="230" y="310" as="sourcePoint" />
            <mxPoint x="280" y="260" as="targetPoint" />
          </mxGeometry>
        </mxCell>
      </root>
    </mxGraphModel>
  </diagram>
</mxfile>
